<svg xmlns="http://www.w3.org/2000/svg" version="1.1" xmlns:xlink="http://www.w3.org/1999/xlink" xmlns:svgjs="http://svgjs.dev/svgjs" viewBox="0 0 800 400"><path d="M306.27801513671875,92.37667846679688C312.1076151529948,92.52615610758464,330.0448506673177,90.88191477457683,341.255615234375,93.27354431152344C352.4663798014323,95.66517384847005,367.56353251139325,97.45889282226562,373.5426025390625,106.72645568847656C379.52167256673175,115.9940185546875,380.7174784342448,138.2660649617513,377.1300354003906,148.87892150878906C373.54259236653644,159.4917780558268,362.4813232421875,165.6203358968099,352.0179443359375,170.40359497070312C341.5545654296875,175.18685404459634,322.720464070638,185.2017962137858,314.3497619628906,177.57847595214844C305.97905985514325,169.95515569051108,303.73692830403644,128.5500717163086,301.7937316894531,124.6636734008789C299.8505350748698,120.77727508544922,302.5411071777344,142.15246200561523,302.6905822753906,154.2600860595703C302.8400573730469,166.3677101135254,302.5411071777344,183.55754852294922,302.6905822753906,197.30941772460938C302.8400573730469,211.06128692626953,303.4379577636719,224.51420084635416,303.5874328613281,236.77130126953125C303.7369079589844,249.02840169270834,303.5874328613281,265.1719004313151,303.5874328613281,270.8520202636719" fill="none" stroke-width="25" stroke="url(&quot;#SvgjsLinearGradient1005&quot;)" stroke-linecap="round"></path><defs><linearGradient id="SvgjsLinearGradient1005"><stop stop-color="hsl(37, 99%, 67%)" offset="0"></stop><stop stop-color="hsl(316, 73%, 52%)" offset="1"></stop></linearGradient></defs></svg>